<svg id="Capa_2_copia" data-name="Capa 2 copia" xmlns="http://www.w3.org/2000/svg" viewBox="0 0 3029 3029"><defs><style>.cls-1{fill:#002e72;}.cls-2{fill:#e51c1c;}.cls-3{fill:#0052e2;}</style></defs><path class="cls-1" d="M529.6,1883.94v-.77c0-78.47,60.39-140,141.93-140,46.17,0,78.51,16.26,101.82,41a17.94,17.94,0,0,1-2.18,26.43l-28.44,22a17.86,17.86,0,0,1-23.31-1.13c-13.09-12.63-28.37-20.26-48.66-20.26-37.69,0-64.23,31.93-64.23,71.16v.77c0,40.39,26.54,71.93,64.23,71.93,22.26,0,37.27-8.22,50.58-21.4a18.07,18.07,0,0,1,23.22-2l27.64,19.69a18,18,0,0,1,3,26.62c-24.1,26.81-56.35,45.2-106.7,45.2C591.53,2023.19,529.6,1964.33,529.6,1883.94Z"/><path class="cls-1" d="M814.24,1899.71v-133.2a18,18,0,0,1,18-18h39.85a18,18,0,0,1,18,18v131.66c0,38.85,19.61,57.32,49.62,57.32s49.62-17.7,49.62-55.39V1766.51a18,18,0,0,1,18-18h39.85a18,18,0,0,1,18,18v131.28c0,86.93-49.62,125-126.16,125S814.24,1984,814.24,1899.71Z"/><path class="cls-1" d="M1099.65,1766.51a18,18,0,0,1,18-18h120.12c33.85,0,57.7,8.46,73.47,24.23,10.77,10.77,17.31,25,17.31,43.46v.77c0,31.16-17.69,49.62-41.54,60,32.69,10.77,53.47,29.23,53.47,65.77v.77c0,46.16-37.7,74.24-101.94,74.24H1117.62a18,18,0,0,1-18-18Zm119.63,89.35c22.69,0,35.39-7.69,35.39-23.46v-.77c0-14.62-11.54-23.08-33.85-23.08h-48.47v47.31Zm10.77,101.93c22.69,0,35.77-8.84,35.77-24.61v-.77c0-14.62-11.54-24.23-36.54-24.23h-56.93v49.61Z"/><path class="cls-1" d="M1470.06,1746.62h48.11a18,18,0,0,1,16.55,11l99.43,235.25a18,18,0,0,1-16.54,25h-40.84a18,18,0,0,1-16.63-11.18l-15.06-36.9H1441.23l-14.72,36.79a18,18,0,0,1-16.68,11.29h-39.21a18,18,0,0,1-16.55-25l99.44-235.25A18,18,0,0,1,1470.06,1746.62Zm53.48,165-30-76.55-30.39,76.55Z"/><path class="cls-1" d="M1668.94,1766.51a18,18,0,0,1,18-18h97.43c68.08,0,111.93,35,111.93,94.62v.77c0,63.47-48.85,96.93-115.78,96.93h-36.93v59a18,18,0,0,1-18,18h-38.69a18,18,0,0,1-18-18Zm110,115.89c26.54,0,42.7-13.84,42.7-35v-.77c0-23.08-16.16-35.39-43.08-35.39h-35v71.16Z"/><path class="cls-1" d="M1916.66,1883.94v-.77c0-77.31,62.31-140,145.39-140s144.63,61.93,144.63,139.24v.77c0,77.32-62.31,140-145.4,140S1916.66,1961.26,1916.66,1883.94Zm213.86,0v-.77c0-38.85-28.08-72.7-69.24-72.7-40.77,0-68.08,33.08-68.08,71.93v.77c0,38.85,28.08,72.7,68.85,72.7C2103.21,1955.87,2130.52,1922.79,2130.52,1883.94Z"/><path class="cls-1" d="M2243.61,1766.51a18,18,0,0,1,18-18h85.89c96.16,0,151.93,55.39,151.93,133.08v.77c0,77.7-56.54,135.4-153.47,135.4h-84.35a18,18,0,0,1-18-18Zm105,185.13c44.62,0,74.24-24.62,74.24-68.08v-.77c0-43.08-29.62-68.08-74.24-68.08h-30.39v136.93Z"/><path class="cls-2" d="M1158.41,1102.56c-102.19,0-185,82.84-185,185s82.84,185,185,185,185-82.84,185-185S1260.6,1102.56,1158.41,1102.56Zm85.81,201L1120.85,1371a18,18,0,0,1-26.58-15.76V1219.89a18,18,0,0,1,26.64-15.74l123.36,68A18,18,0,0,1,1244.22,1303.61Z"/><rect class="cls-3" x="1333.46" y="1005" width="503.92" height="117.66" rx="29.61"/><rect class="cls-3" x="1334.41" y="1453.81" width="503.92" height="117.66" rx="29.61"/><rect class="cls-3" x="1412.32" y="1209.78" width="467.96" height="155.61" rx="29.61"/></svg>