<svg id="Capa_2_copia" data-name="Capa 2 copia" xmlns="http://www.w3.org/2000/svg" viewBox="0 0 3734 3029"><defs><style>.cls-1{fill:#002e72;}.cls-2{fill:#e51c1c;}.cls-3{fill:#0052e2;}</style></defs><path class="cls-1" d="M1392.6,1515.27v-.77c0-78.47,60.39-140,141.93-140,46.17,0,78.51,16.25,101.82,41a17.93,17.93,0,0,1-2.18,26.42l-28.44,22a17.88,17.88,0,0,1-23.31-1.13c-13.09-12.63-28.37-20.26-48.66-20.26-37.69,0-64.23,31.93-64.23,71.16v.77c0,40.39,26.54,71.93,64.23,71.93,22.26,0,37.27-8.22,50.58-21.4a18.06,18.06,0,0,1,23.22-2l27.64,19.69a18,18,0,0,1,3,26.62c-24.1,26.81-56.35,45.19-106.7,45.19C1454.53,1654.51,1392.6,1595.66,1392.6,1515.27Z"/><path class="cls-1" d="M1677.24,1531v-133.2a18,18,0,0,1,18-18h39.85a18,18,0,0,1,18,18V1529.5c0,38.85,19.61,57.31,49.62,57.31s49.62-17.69,49.62-55.39V1397.84a18,18,0,0,1,18-18h39.85a18,18,0,0,1,18,18v131.28c0,86.93-49.62,125-126.16,125S1677.24,1615.28,1677.24,1531Z"/><path class="cls-1" d="M1962.65,1397.84a18,18,0,0,1,18-18h120.12c33.85,0,57.7,8.47,73.47,24.24,10.77,10.77,17.31,25,17.31,43.46v.77c0,31.16-17.69,49.62-41.54,60,32.69,10.77,53.47,29.23,53.47,65.77v.77c0,46.16-37.7,74.24-101.94,74.24H1980.62a18,18,0,0,1-18-18Zm119.63,89.35c22.69,0,35.39-7.69,35.39-23.46V1463c0-14.62-11.54-23.08-33.85-23.08h-48.47v47.31Zm10.77,101.93c22.69,0,35.77-8.85,35.77-24.62v-.76c0-14.62-11.54-24.24-36.54-24.24h-56.93v49.62Z"/><path class="cls-1" d="M2333.06,1378h48.11a18,18,0,0,1,16.55,11l99.43,235.25a18,18,0,0,1-16.54,25h-40.84a18,18,0,0,1-16.63-11.18l-15.06-36.9H2304.23l-14.72,36.79a18,18,0,0,1-16.68,11.29h-39.21a18,18,0,0,1-16.55-25l99.44-235.25A18,18,0,0,1,2333.06,1378Zm53.48,165-30-76.54L2326.15,1543Z"/><path class="cls-1" d="M2531.94,1397.84a18,18,0,0,1,18-18h97.43c68.08,0,111.93,35,111.93,94.63v.77c0,63.46-48.85,96.93-115.78,96.93h-36.93v59a18,18,0,0,1-18,18h-38.69a18,18,0,0,1-18-18Zm110,115.89c26.54,0,42.7-13.85,42.7-35V1478c0-23.08-16.16-35.39-43.08-35.39h-35v71.16Z"/><path class="cls-1" d="M2779.66,1515.27v-.77c0-77.31,62.31-140,145.39-140s144.63,61.93,144.63,139.24v.77c0,77.31-62.31,140-145.4,140S2779.66,1592.58,2779.66,1515.27Zm213.86,0v-.77c0-38.85-28.08-72.7-69.24-72.7-40.77,0-68.08,33.08-68.08,71.93v.77c0,38.85,28.08,72.7,68.85,72.7C2966.21,1587.2,2993.52,1554.12,2993.52,1515.27Z"/><path class="cls-1" d="M3106.61,1397.84a18,18,0,0,1,18-18h85.89c96.16,0,151.93,55.39,151.93,133.09v.77c0,77.7-56.54,135.4-153.47,135.4h-84.35a18,18,0,0,1-18-18Zm105,185.13c44.62,0,74.24-24.62,74.24-68.09v-.76c0-43.09-29.62-68.09-74.24-68.09h-30.39V1583Z"/><path class="cls-2" d="M538.41,1328.82c-102.19,0-185,82.84-185,185s82.84,185,185,185,185-82.84,185-185S640.6,1328.82,538.41,1328.82Zm85.81,201.06-123.37,67.43a18,18,0,0,1-26.58-15.76V1446.16a18,18,0,0,1,26.64-15.74l123.36,68A18,18,0,0,1,624.22,1529.88Z"/><rect class="cls-3" x="713.46" y="1231.27" width="503.92" height="117.66" rx="29.61"/><rect class="cls-3" x="714.41" y="1680.08" width="503.92" height="117.66" rx="29.61"/><rect class="cls-3" x="792.32" y="1436.04" width="467.96" height="155.61" rx="29.61"/></svg>